<?xml version="1.0" encoding="utf-8"?>
<!-- Generator: Adobe Illustrator 18.0.0, SVG Export Plug-In . SVG Version: 6.00 Build 0)  -->
<!DOCTYPE svg PUBLIC "-//W3C//DTD SVG 1.1//EN" "http://www.w3.org/Graphics/SVG/1.1/DTD/svg11.dtd">
<svg version="1.1" id="Layer_1" xmlns="http://www.w3.org/2000/svg" xmlns:xlink="http://www.w3.org/1999/xlink" x="0px" y="0px"
	 viewBox="0 0 1280 800" preserveAspectRatio="none" enable-background="new 0 0 1280 800" xml:space="preserve">
<rect x="55" y="266.5" fill="none" width="1170" height="390"/>
<g>
	<g>
		<path fill="#FFFFFF" d="M642.4,662.2l0-1c2.6,0,5.3-0.1,8-0.3l0.1,1C647.7,662.1,645,662.2,642.4,662.2z M634.4,662.2
			c-2.7-0.1-5.4-0.2-8-0.4l0.1-1c2.6,0.2,5.3,0.3,8,0.3L634.4,662.2z M658.4,661.4l-0.1-1c2.6-0.2,5.3-0.6,7.9-0.9l0.1,1
			C663.7,660.8,661,661.1,658.4,661.4z M618.4,661.2c-2.6-0.3-5.3-0.6-8-1l0.1-1c2.6,0.4,5.3,0.7,7.9,1L618.4,661.2z M674.3,659.2
			l-0.2-1c2.6-0.5,5.2-1,7.8-1.5l0.2,1C679.5,658.2,676.9,658.8,674.3,659.2z M602.5,658.9c-2.6-0.5-5.3-1-7.9-1.6l0.2-1
			c2.6,0.6,5.2,1.1,7.8,1.6L602.5,658.9z M690,655.8l-0.3-1c2.6-0.7,5.1-1.4,7.7-2.2l0.3,1C695.1,654.4,692.5,655.2,690,655.8z
			 M586.9,655.3c-2.6-0.7-5.2-1.4-7.7-2.2l0.3-1c2.5,0.8,5.1,1.5,7.7,2.2L586.9,655.3z M705.3,651.2l-0.3-0.9c2.5-0.9,5-1.8,7.5-2.8
			l0.4,0.9C710.3,649.4,707.8,650.3,705.3,651.2z M571.6,650.5c-2.5-0.9-5-1.9-7.5-2.9l0.4-0.9c2.5,1,5,2,7.5,2.8L571.6,650.5z
			 M720.2,645.3l-0.4-0.9c2.4-1.1,4.8-2.2,7.2-3.4l0.4,0.9C725.1,643.1,722.6,644.2,720.2,645.3z M556.7,644.5
			c-2.4-1.1-4.9-2.3-7.3-3.5l0.4-0.9c2.4,1.2,4.8,2.3,7.2,3.4L556.7,644.5z M734.6,638.3l-0.5-0.9c2.3-1.3,4.7-2.6,6.9-3.9l0.5,0.9
			C739.2,635.7,736.9,637,734.6,638.3z M542.3,637.3c-2.3-1.3-4.7-2.6-6.9-4l0.5-0.9c2.3,1.4,4.6,2.7,6.9,4L542.3,637.3z
			 M748.3,630.1l-0.5-0.8c2.2-1.4,4.4-2.9,6.6-4.5l0.6,0.8C752.8,627.2,750.6,628.7,748.3,630.1z M528.6,629c-2.2-1.5-4.4-3-6.6-4.6
			l0.6-0.8c2.2,1.6,4.4,3.1,6.6,4.5L528.6,629z M761.4,620.9l-0.6-0.8c2.1-1.6,4.2-3.3,6.2-5l0.6,0.8
			C765.7,617.6,763.5,619.3,761.4,620.9z M515.5,619.6c-2.1-1.6-4.2-3.3-6.2-5.1l0.6-0.8c2,1.7,4.1,3.4,6.2,5L515.5,619.6z
			 M773.8,610.7l-0.7-0.7c2-1.8,3.9-3.6,5.8-5.5l0.7,0.7C777.7,607.1,775.7,608.9,773.8,610.7z M503.3,609.2c-2-1.8-3.9-3.7-5.8-5.5
			l0.7-0.7c1.9,1.9,3.8,3.7,5.8,5.5L503.3,609.2z M785.2,599.5l-0.7-0.7c1.8-1.9,3.6-3.9,5.4-5.9l0.8,0.7
			C788.9,595.6,787.1,597.6,785.2,599.5z M492,597.9c-1.8-1.9-3.6-4-5.3-6l0.8-0.7c1.7,2,3.5,4,5.3,6L492,597.9z M795.8,587.4
			l-0.8-0.6c1.7-2.1,3.3-4.2,4.9-6.3l0.8,0.6C799.1,583.2,797.5,585.3,795.8,587.4z M481.5,585.8c-1.6-2.1-3.3-4.2-4.8-6.4l0.8-0.6
			c1.6,2.1,3.2,4.3,4.8,6.4L481.5,585.8z M805.4,574.5l-0.8-0.6c1.5-2.2,3-4.4,4.4-6.7l0.8,0.5C808.3,570.1,806.9,572.4,805.4,574.5
			z M472.1,572.8c-1.5-2.2-2.9-4.5-4.3-6.7l0.9-0.5c1.4,2.3,2.8,4.5,4.3,6.7L472.1,572.8z M813.9,560.9l-0.9-0.5
			c1.3-2.3,2.6-4.7,3.8-7l0.9,0.5C816.5,556.3,815.2,558.6,813.9,560.9z M463.7,559.2c-1.3-2.3-2.6-4.7-3.8-7.1l0.9-0.5
			c1.2,2.4,2.5,4.7,3.7,7L463.7,559.2z M821.3,546.7l-0.9-0.4c1.1-2.4,2.2-4.9,3.3-7.3l0.9,0.4C823.5,541.8,822.4,544.3,821.3,546.7
			z M456.5,544.9c-1.1-2.4-2.2-4.9-3.2-7.3l0.9-0.4c1,2.4,2.1,4.9,3.2,7.3L456.5,544.9z M827.6,531.9l-0.9-0.4
			c0.9-2.5,1.8-5,2.7-7.5l0.9,0.3C829.4,526.8,828.5,529.4,827.6,531.9z M450.4,530.1c-0.9-2.5-1.8-5.1-2.6-7.6l1-0.3
			c0.8,2.5,1.7,5.1,2.6,7.5L450.4,530.1z M832.6,516.7l-1-0.3c0.7-2.5,1.4-5.1,2-7.7l1,0.2C834,511.5,833.3,514.1,832.6,516.7z
			 M445.5,514.8c-0.7-2.6-1.4-5.2-2-7.8l1-0.2c0.6,2.6,1.3,5.2,2,7.7L445.5,514.8z M836.4,501.1l-1-0.2c0.5-2.6,1-5.2,1.4-7.9l1,0.2
			C837.4,495.8,836.9,498.5,836.4,501.1z M441.9,499.2c-0.5-2.6-1-5.3-1.3-7.9l1-0.1c0.4,2.6,0.8,5.3,1.3,7.9L441.9,499.2z
			 M838.9,485.2l-1-0.1c0.3-2.6,0.6-5.3,0.8-7.9l1,0.1C839.5,479.9,839.2,482.6,838.9,485.2z M439.5,483.4c-0.3-2.6-0.5-5.3-0.7-8
			l1-0.1c0.2,2.6,0.4,5.3,0.7,7.9L439.5,483.4z M840.2,469.3l-1,0c0.1-2.7,0.2-5.3,0.2-8h1C840.3,463.9,840.3,466.6,840.2,469.3z
			 M438.4,467.4c-0.1-2-0.1-4.1-0.1-6.1c0-0.6,0-1.3,0-1.9l1,0c0,0.6,0,1.3,0,1.9c0,2,0,4.1,0.1,6.1L438.4,467.4z M839.3,457
			c-0.1-2.7-0.2-5.3-0.3-8l1-0.1c0.2,2.6,0.3,5.3,0.3,8L839.3,457z M439.6,451.4l-1,0c0.1-2.7,0.3-5.4,0.5-8l1,0.1
			C439.9,446.1,439.7,448.7,439.6,451.4z M838.3,441.1c-0.3-2.6-0.6-5.3-1-7.9l1-0.1c0.4,2.6,0.7,5.3,1,8L838.3,441.1z M441,435.5
			l-1-0.1c0.3-2.6,0.7-5.3,1.2-7.9l1,0.2C441.7,430.2,441.3,432.9,441,435.5z M836.1,425.3c-0.5-2.6-1-5.2-1.6-7.8l1-0.2
			c0.6,2.6,1.1,5.2,1.6,7.9L836.1,425.3z M443.6,419.8l-1-0.2c0.5-2.6,1.2-5.2,1.8-7.8l1,0.2C444.8,414.6,444.2,417.2,443.6,419.8z
			 M832.6,409.8c-0.7-2.6-1.4-5.1-2.2-7.7l1-0.3c0.8,2.5,1.5,5.1,2.2,7.7L832.6,409.8z M447.5,404.3l-1-0.3c0.8-2.5,1.6-5.1,2.4-7.6
			l0.9,0.3C449.1,399.2,448.3,401.8,447.5,404.3z M827.9,394.5c-0.9-2.5-1.8-5-2.8-7.5l0.9-0.4c1,2.5,1.9,5,2.8,7.5L827.9,394.5z
			 M452.7,389.2l-0.9-0.4c1-2.5,2-5,3-7.4l0.9,0.4C454.7,384.2,453.7,386.7,452.7,389.2z M822,379.7c-1.1-2.4-2.2-4.8-3.4-7.2
			l0.9-0.4c1.2,2.4,2.3,4.8,3.4,7.2L822,379.7z M459.1,374.5l-0.9-0.4c1.2-2.4,2.4-4.8,3.6-7.2l0.9,0.5
			C461.4,369.7,460.2,372.1,459.1,374.5z M814.9,365.5c-1.3-2.3-2.6-4.6-4-6.9l0.9-0.5c1.4,2.3,2.7,4.6,4,6.9L814.9,365.5z
			 M466.6,360.4l-0.9-0.5c1.3-2.3,2.8-4.6,4.2-6.8l0.8,0.5C469.3,355.8,467.9,358.1,466.6,360.4z M806.7,351.8
			c-1.4-2.2-3-4.4-4.5-6.6l0.8-0.6c1.5,2.2,3.1,4.4,4.5,6.6L806.7,351.8z M475.2,347l-0.8-0.6c1.5-2.2,3.1-4.4,4.7-6.5l0.8,0.6
			C478.3,342.6,476.7,344.8,475.2,347z M797.5,338.8c-1.6-2.1-3.3-4.2-5-6.2l0.8-0.6c1.7,2,3.4,4.1,5,6.2L797.5,338.8z M484.8,334.2
			l-0.8-0.6c1.7-2.1,3.4-4.1,5.2-6.1l0.7,0.7C488.2,330.2,486.5,332.2,484.8,334.2z M787.2,326.6c-1.8-2-3.6-3.9-5.5-5.8l0.7-0.7
			c1.9,1.9,3.7,3.9,5.5,5.8L787.2,326.6z M495.4,322.3l-0.7-0.7c1.9-1.9,3.8-3.8,5.7-5.7l0.7,0.7
			C499.2,318.5,497.3,320.4,495.4,322.3z M776,315.3c-1.9-1.8-3.9-3.6-5.9-5.3l0.7-0.8c2,1.7,4,3.5,6,5.4L776,315.3z M507,311.3
			l-0.7-0.7c2-1.8,4.1-3.5,6.1-5.2l0.6,0.8C511,307.8,509,309.6,507,311.3z M764,304.8c-2.1-1.7-4.2-3.3-6.3-4.9l0.6-0.8
			c2.1,1.6,4.3,3.2,6.4,4.9L764,304.8z M519.3,301.2l-0.6-0.8c2.1-1.6,4.3-3.2,6.5-4.7l0.6,0.8C523.6,298.1,521.4,299.6,519.3,301.2
			z M751.1,295.4c-2.2-1.5-4.5-2.9-6.7-4.3l0.5-0.9c2.3,1.4,4.5,2.9,6.7,4.4L751.1,295.4z M532.4,292.2l-0.5-0.8
			c2.2-1.4,4.5-2.8,6.8-4.1l0.5,0.9C537,289.4,534.7,290.8,532.4,292.2z M737.5,287c-2.3-1.3-4.7-2.6-7-3.8l0.5-0.9
			c2.4,1.2,4.8,2.5,7.1,3.8L737.5,287z M546.2,284.2l-0.5-0.9c2.4-1.2,4.8-2.4,7.2-3.6l0.4,0.9C551,281.8,548.6,283,546.2,284.2z
			 M723.3,279.7c-2.4-1.1-4.9-2.2-7.3-3.2l0.4-0.9c2.5,1,4.9,2.1,7.4,3.2L723.3,279.7z M560.6,277.3l-0.4-0.9c2.4-1,4.9-2.1,7.4-3
			l0.4,0.9C565.5,275.3,563,276.3,560.6,277.3z M708.5,273.5c-2.5-0.9-5-1.8-7.6-2.6l0.3-1c2.5,0.8,5.1,1.7,7.6,2.6L708.5,273.5z
			 M575.5,271.7l-0.3-0.9c2.5-0.9,5.1-1.7,7.6-2.4l0.3,1C580.5,270,578,270.8,575.5,271.7z M693.3,268.6c-2.6-0.7-5.2-1.4-7.7-2
			l0.2-1c2.6,0.6,5.2,1.3,7.8,2L693.3,268.6z M590.8,267.2l-0.2-1c2.6-0.6,5.2-1.2,7.8-1.8l0.2,1C596,265.9,593.3,266.5,590.8,267.2
			z M677.8,264.9c-2.6-0.5-5.2-1-7.9-1.4l0.2-1c2.6,0.4,5.3,0.9,7.9,1.4L677.8,264.9z M606.4,263.9l-0.2-1c2.6-0.4,5.3-0.8,7.9-1.2
			l0.1,1C611.7,263.1,609,263.5,606.4,263.9z M662,262.5c-2.6-0.3-5.3-0.5-7.9-0.7l0.1-1c2.7,0.2,5.3,0.4,8,0.7L662,262.5z
			 M622.2,262l-0.1-1c2.7-0.2,5.3-0.4,8-0.5l0,1C627.5,261.6,624.9,261.7,622.2,262z M646.1,261.4c-2.3-0.1-4.5-0.1-6.8-0.1l-1.2,0
			l0-1l1.2,0c2.3,0,4.6,0,6.8,0.1L646.1,261.4z"/>
	</g>
	<g>
		<circle fill="#FFFFFF" cx="447.8" cy="402.2" r="8"/>
		<circle fill="#FFFFFF" cx="475.7" cy="578.7" r="4.5"/>
		<circle fill="#FFFFFF" cx="794.3" cy="586.5" r="8"/>
		<circle fill="#FFFFFF" cx="836.8" cy="423.1" r="6.6"/>
		<circle fill="#FFFFFF" cx="832.3" cy="519.9" r="4.5"/>
		<circle fill="#FFFFFF" cx="805.3" cy="351.7" r="6.6"/>
	</g>
	    <animateTransform attributeName="transform" attributeType="xml" type="rotate" from="0 639.81 459.681" to="360 639.81 459.681" dur="4s" repeatCount="indefinite"/>
</g>
</svg>
